<svg width="28" height="24" viewBox="0 0 28 24" fill="none" xmlns="http://www.w3.org/2000/svg">
<path d="M18 16.6667C17.6218 15.1452 15.9747 14 14 14C12.0253 14 10.3782 15.1452 10 16.6667M14 8.66668H14.0133M8.4 22.6667H19.6C21.8402 22.6667 22.9603 22.6667 23.816 22.2307C24.5686 21.8472 25.1805 21.2353 25.564 20.4826C26 19.627 26 18.5069 26 16.2667V7.73334C26 5.49313 26 4.37303 25.564 3.51738C25.1805 2.76473 24.5686 2.15281 23.816 1.76932C22.9603 1.33334 21.8402 1.33334 19.6 1.33334H8.4C6.15979 1.33334 5.03969 1.33334 4.18404 1.76932C3.43139 2.15281 2.81947 2.76473 2.43597 3.51738C2 4.37303 2 5.49313 2 7.73334V16.2667C2 18.5069 2 19.627 2.43597 20.4826C2.81947 21.2353 3.43139 21.8472 4.18404 22.2307C5.03969 22.6667 6.15979 22.6667 8.4 22.6667ZM15.3333 8.66668C15.3333 9.40306 14.7364 10 14 10C13.2636 10 12.6667 9.40306 12.6667 8.66668C12.6667 7.9303 13.2636 7.33334 14 7.33334C14.7364 7.33334 15.3333 7.9303 15.3333 8.66668Z" stroke="#152432" stroke-width="2.66667" stroke-linecap="round" stroke-linejoin="round"/>
</svg>
