<svg width="20" height="22" viewBox="0 0 20 22" fill="none" xmlns="http://www.w3.org/2000/svg">
<path d="M7 20H13M16 7.6C16 6.11479 15.3679 4.69041 14.2426 3.6402C13.1174 2.59 11.5913 2 10 2C8.4087 2 6.88258 2.59 5.75736 3.6402C4.63214 4.69041 4 6.11479 4 7.6C4 10.2862 3.3238 12.1835 2.52745 13.4866C1.75616 14.7486 1.37051 15.3797 1.38485 15.5436C1.40095 15.7277 1.43729 15.7925 1.58603 15.9023C1.71841 16 2.34762 16 3.60605 16H16.3939C17.6524 16 18.2816 16 18.414 15.9023C18.5627 15.7925 18.599 15.7277 18.6152 15.5436C18.6295 15.3797 18.2438 14.7486 17.4725 13.4866C16.6762 12.1835 16 10.2862 16 7.6Z" stroke="#152432" stroke-width="2.66667" stroke-linecap="round" stroke-linejoin="round"/>
</svg>
