<svg width="30" height="28" viewBox="0 0 30 28" fill="none" xmlns="http://www.w3.org/2000/svg">
<path d="M20.6569 5.67643C23.781 8.80063 23.781 13.8659 20.6569 16.9901M9.3431 16.9901C6.2189 13.8659 6.2189 8.80063 9.3431 5.67643M5.57156 20.7615C0.364573 15.5545 0.364573 7.11226 5.57156 1.90527M24.4283 1.90527C29.6353 7.11226 29.6353 15.5545 24.4283 20.7615M14.9999 14C16.4727 14 17.6666 12.8061 17.6666 11.3333C17.6666 9.86057 16.4727 8.66667 14.9999 8.66667C13.5272 8.66667 12.3333 9.86057 12.3333 11.3333C12.3333 12.8061 13.5272 14 14.9999 14ZM14.9999 14V26" stroke="#D7E4EE" stroke-width="2.66667" stroke-linecap="round" stroke-linejoin="round"/>
</svg>
