<svg width="22" height="22" viewBox="0 0 22 22" fill="none" xmlns="http://www.w3.org/2000/svg">
<path d="M2 13.6C2 13.0399 2 12.7599 2.10899 12.546C2.20487 12.3578 2.35785 12.2049 2.54601 12.109C2.75992 12 3.03995 12 3.6 12H4.4C4.96005 12 5.24008 12 5.45399 12.109C5.64215 12.2049 5.79513 12.3578 5.89101 12.546C6 12.7599 6 13.0399 6 13.6V18.4C6 18.9601 6 19.2401 5.89101 19.454C5.79513 19.6422 5.64215 19.7951 5.45399 19.891C5.24008 20 4.96005 20 4.4 20H3.6C3.03995 20 2.75992 20 2.54601 19.891C2.35785 19.7951 2.20487 19.6422 2.10899 19.454C2 19.2401 2 18.9601 2 18.4V13.6Z" stroke="white" stroke-width="2.66667" stroke-linecap="round" stroke-linejoin="round"/>
<path d="M9 3.6C9 3.03995 9 2.75992 9.10899 2.54601C9.20487 2.35785 9.35785 2.20487 9.54601 2.10899C9.75992 2 10.0399 2 10.6 2H11.4C11.9601 2 12.2401 2 12.454 2.10899C12.6422 2.20487 12.7951 2.35785 12.891 2.54601C13 2.75992 13 3.03995 13 3.6V18.4C13 18.9601 13 19.2401 12.891 19.454C12.7951 19.6422 12.6422 19.7951 12.454 19.891C12.2401 20 11.9601 20 11.4 20H10.6C10.0399 20 9.75992 20 9.54601 19.891C9.35785 19.7951 9.20487 19.6422 9.10899 19.454C9 19.2401 9 18.9601 9 18.4V3.6Z" stroke="white" stroke-width="2.66667" stroke-linecap="round" stroke-linejoin="round"/>
<path d="M16 9.6C16 9.03995 16 8.75992 16.109 8.54601C16.2049 8.35785 16.3578 8.20487 16.546 8.10899C16.7599 8 17.0399 8 17.6 8H18.4C18.9601 8 19.2401 8 19.454 8.10899C19.6422 8.20487 19.7951 8.35785 19.891 8.54601C20 8.75992 20 9.03995 20 9.6V18.4C20 18.9601 20 19.2401 19.891 19.454C19.7951 19.6422 19.6422 19.7951 19.454 19.891C19.2401 20 18.9601 20 18.4 20H17.6C17.0399 20 16.7599 20 16.546 19.891C16.3578 19.7951 16.2049 19.6422 16.109 19.454C16 19.2401 16 18.9601 16 18.4V9.6Z" stroke="white" stroke-width="2.66667" stroke-linecap="round" stroke-linejoin="round"/>
</svg>
