<svg width="22" height="18" viewBox="0 0 22 18" fill="none" xmlns="http://www.w3.org/2000/svg">
<path d="M20 8V11.2C20 12.8802 20 13.7202 19.673 14.362C19.3854 14.9265 18.9265 15.3854 18.362 15.673C17.7202 16 16.8802 16 15.2 16H6.8C5.11984 16 4.27976 16 3.63803 15.673C3.07354 15.3854 2.6146 14.9265 2.32698 14.362C2 13.7202 2 12.8802 2 11.2V6.8C2 5.11984 2 4.27976 2.32698 3.63803C2.6146 3.07354 3.07354 2.6146 3.63803 2.32698C4.27976 2 5.11984 2 6.8 2H14M20 8L14 2M20 8H17.2C16.0799 8 15.5198 8 15.092 7.78201C14.7157 7.59027 14.4097 7.28431 14.218 6.90798C14 6.48016 14 5.9201 14 4.8V2" stroke="white" stroke-width="2.66667" stroke-linecap="round" stroke-linejoin="round"/>
</svg>
