<svg width="18" height="22" viewBox="0 0 18 22" fill="none" xmlns="http://www.w3.org/2000/svg">
<path d="M5 5.5V7.5M8 5.5V7.5M11 5.5V7.5M16 8.68375V15.2C16 16.8802 16 17.7202 15.673 18.362C15.3854 18.9265 14.9265 19.3854 14.362 19.673C13.7202 20 12.8802 20 11.2 20H6.8C5.11984 20 4.27976 20 3.63803 19.673C3.07354 19.3854 2.6146 18.9265 2.32698 18.362C2 17.7202 2 16.8802 2 15.2V6.8C2 5.11984 2 4.27976 2.32698 3.63803C2.6146 3.07354 3.07354 2.6146 3.63803 2.32698C4.27976 2 5.11984 2 6.8 2H9.693C10.5402 2 10.9638 2 11.3549 2.10774C11.7014 2.20319 12.0279 2.36012 12.3189 2.57105C12.6473 2.80914 12.9119 3.13991 13.4412 3.80146L14.9482 5.68521C15.338 6.17252 15.5329 6.41617 15.6715 6.68749C15.7945 6.9282 15.8844 7.18443 15.9387 7.44921C16 7.74767 16 8.0597 16 8.68375Z" stroke="white" stroke-width="2.66667" stroke-linecap="round" stroke-linejoin="round"/>
</svg>
