<svg width="22" height="20" viewBox="0 0 22 20" fill="none" xmlns="http://www.w3.org/2000/svg">
<path d="M17 5H17.01M14 5H14.01M17 15H17.01M14 15H14.01M5 8H17C17.9319 8 18.3978 8 18.7654 7.84776C19.2554 7.64477 19.6448 7.25542 19.8478 6.76537C20 6.39782 20 5.93188 20 5C20 4.06812 20 3.60218 19.8478 3.23463C19.6448 2.74458 19.2554 2.35523 18.7654 2.15224C18.3978 2 17.9319 2 17 2H5C4.06812 2 3.60218 2 3.23463 2.15224C2.74458 2.35523 2.35523 2.74458 2.15224 3.23463C2 3.60218 2 4.06812 2 5C2 5.93188 2 6.39782 2.15224 6.76537C2.35523 7.25542 2.74458 7.64477 3.23463 7.84776C3.60218 8 4.06812 8 5 8ZM5 18H17C17.9319 18 18.3978 18 18.7654 17.8478C19.2554 17.6448 19.6448 17.2554 19.8478 16.7654C20 16.3978 20 15.9319 20 15C20 14.0681 20 13.6022 19.8478 13.2346C19.6448 12.7446 19.2554 12.3552 18.7654 12.1522C18.3978 12 17.9319 12 17 12H5C4.06812 12 3.60218 12 3.23463 12.1522C2.74458 12.3552 2.35523 12.7446 2.15224 13.2346C2 13.6022 2 14.0681 2 15C2 15.9319 2 16.3978 2.15224 16.7654C2.35523 17.2554 2.74458 17.6448 3.23463 17.8478C3.60218 18 4.06812 18 5 18Z" stroke="white" stroke-width="2.66667" stroke-linecap="round" stroke-linejoin="round"/>
</svg>
