<svg width="22" height="20" viewBox="0 0 22 20" fill="none" xmlns="http://www.w3.org/2000/svg">
<path d="M18 2H8C7.07003 2 6.60504 2 6.22354 2.10222C5.18827 2.37962 4.37962 3.18827 4.10222 4.22354C4 4.60504 4 5.07003 4 6M13 10H17M13 14H17M5.2 18H16.8C17.9201 18 18.4802 18 18.908 17.782C19.2843 17.5903 19.5903 17.2843 19.782 16.908C20 16.4802 20 15.9201 20 14.8V9.2C20 8.0799 20 7.51984 19.782 7.09202C19.5903 6.71569 19.2843 6.40973 18.908 6.21799C18.4802 6 17.9201 6 16.8 6H5.2C4.0799 6 3.51984 6 3.09202 6.21799C2.71569 6.40973 2.40973 6.71569 2.21799 7.09202C2 7.51984 2 8.07989 2 9.2V14.8C2 15.9201 2 16.4802 2.21799 16.908C2.40973 17.2843 2.71569 17.5903 3.09202 17.782C3.51984 18 4.07989 18 5.2 18ZM10 12C10 13.1046 9.10457 14 8 14C6.89543 14 6 13.1046 6 12C6 10.8954 6.89543 10 8 10C9.10457 10 10 10.8954 10 12Z" stroke="white" stroke-width="2.66667" stroke-linecap="round" stroke-linejoin="round"/>
</svg>
