<svg width="24" height="23" viewBox="0 0 24 23" fill="none" xmlns="http://www.w3.org/2000/svg">
<path d="M6 13H6.01M6 17H6.01M10 13H10.01M14 13H14.01M18 17H18.01M18 13H18.01M16 2V5H8V9M10 17H14M6.8 21H17.2C18.8802 21 19.7202 21 20.362 20.673C20.9265 20.3854 21.3854 19.9265 21.673 19.362C22 18.7202 22 17.8802 22 16.2V13.8C22 12.1198 22 11.2798 21.673 10.638C21.3854 10.0735 20.9265 9.6146 20.362 9.32698C19.7202 9 18.8802 9 17.2 9H6.8C5.11984 9 4.27976 9 3.63803 9.32698C3.07354 9.6146 2.6146 10.0735 2.32698 10.638C2 11.2798 2 12.1198 2 13.8V16.2C2 17.8802 2 18.7202 2.32698 19.362C2.6146 19.9265 3.07354 20.3854 3.63803 20.673C4.27976 21 5.11984 21 6.8 21Z" stroke="white" stroke-width="2.66667" stroke-linecap="round" stroke-linejoin="round"/>
</svg>
