<svg width="59" height="15" viewBox="0 0 59 15" fill="none" xmlns="http://www.w3.org/2000/svg">
<path d="M9.60551 4.03V4.77H6.57551V7.12H9.03551V7.86H6.57551V11H5.66551V4.03H9.60551ZM17.7746 4.08V11H16.8646V5.84L14.5646 11H13.9246L11.6146 5.83V11H10.7046V4.08H11.6846L14.2446 9.8L16.8046 4.08H17.7746ZM23.1179 6.95V7.72H19.1279V6.95H23.1179ZM27.4557 5.54C28.1157 5.54 28.6457 5.77 29.0457 6.23C29.4523 6.69 29.6557 7.38333 29.6557 8.31C29.6557 8.91667 29.5623 9.43 29.3757 9.85C29.1957 10.2633 28.939 10.5767 28.6057 10.79C28.279 10.9967 27.8923 11.1 27.4457 11.1C27.1723 11.1 26.929 11.0633 26.7157 10.99C26.5023 10.9167 26.319 10.8233 26.1657 10.71C26.019 10.59 25.8923 10.46 25.7857 10.32H25.7257C25.739 10.4333 25.7523 10.5767 25.7657 10.75C25.779 10.9233 25.7857 11.0733 25.7857 11.2V13.4H24.9057V5.64H25.6257L25.7457 6.37H25.7857C25.8923 6.21667 26.019 6.07667 26.1657 5.95C26.319 5.82333 26.499 5.72333 26.7057 5.65C26.919 5.57667 27.169 5.54 27.4557 5.54ZM27.2957 6.28C26.9357 6.28 26.6457 6.35 26.4257 6.49C26.2057 6.62333 26.0457 6.82667 25.9457 7.1C25.8457 7.37333 25.7923 7.72 25.7857 8.14V8.31C25.7857 8.75 25.8323 9.12333 25.9257 9.43C26.019 9.73667 26.1757 9.97 26.3957 10.13C26.6223 10.29 26.929 10.37 27.3157 10.37C27.6423 10.37 27.909 10.28 28.1157 10.1C28.329 9.92 28.4857 9.67667 28.5857 9.37C28.6923 9.05667 28.7457 8.7 28.7457 8.3C28.7457 7.68667 28.6257 7.19667 28.3857 6.83C28.1523 6.46333 27.789 6.28 27.2957 6.28ZM33.088 5.55C33.7413 5.55 34.2247 5.69333 34.538 5.98C34.8513 6.26667 35.008 6.72333 35.008 7.35V11H34.368L34.198 10.24H34.158C34.0047 10.4333 33.8447 10.5967 33.678 10.73C33.518 10.8567 33.3313 10.95 33.118 11.01C32.9113 11.07 32.658 11.1 32.358 11.1C32.038 11.1 31.748 11.0433 31.488 10.93C31.2347 10.8167 31.0347 10.6433 30.888 10.41C30.7413 10.17 30.668 9.87 30.668 9.51C30.668 8.97667 30.878 8.56667 31.298 8.28C31.718 7.98667 32.3647 7.82667 33.238 7.8L34.148 7.77V7.45C34.148 7.00333 34.0513 6.69333 33.858 6.52C33.6647 6.34667 33.3913 6.26 33.038 6.26C32.758 6.26 32.4913 6.30333 32.238 6.39C31.9847 6.47 31.748 6.56333 31.528 6.67L31.258 6.01C31.4913 5.88333 31.768 5.77667 32.088 5.69C32.408 5.59667 32.7413 5.55 33.088 5.55ZM33.348 8.41C32.6813 8.43667 32.218 8.54333 31.958 8.73C31.7047 8.91667 31.578 9.18 31.578 9.52C31.578 9.82 31.668 10.04 31.848 10.18C32.0347 10.32 32.2713 10.39 32.558 10.39C33.0113 10.39 33.388 10.2667 33.688 10.02C33.988 9.76667 34.138 9.38 34.138 8.86V8.38L33.348 8.41ZM40.6435 5.64V10.26H41.4235V12.86H40.5735V11H36.8435V12.86H36.0035V10.26H36.4335C36.7401 9.83333 36.9935 9.37 37.1935 8.87C37.4001 8.36333 37.5535 7.83667 37.6535 7.29C37.7601 6.73667 37.8168 6.18667 37.8235 5.64H40.6435ZM38.6035 6.33C38.5768 6.78333 38.5068 7.25333 38.3935 7.74C38.2801 8.22 38.1335 8.68 37.9535 9.12C37.7801 9.56 37.5768 9.94 37.3435 10.26H39.7935V6.33H38.6035ZM43.304 8.91C43.304 8.97 43.3007 9.05667 43.294 9.17C43.294 9.27667 43.2907 9.39333 43.284 9.52C43.2774 9.64 43.2707 9.75667 43.264 9.87C43.2574 9.97667 43.2507 10.0633 43.244 10.13L46.114 5.64H47.194V11H46.374V7.84C46.374 7.73333 46.374 7.59333 46.374 7.42C46.3807 7.24667 46.3874 7.07667 46.394 6.91C46.4007 6.73667 46.4074 6.60667 46.414 6.52L43.564 11H42.474V5.64H43.304V8.91ZM53.5598 8.31C53.5598 8.75667 53.4998 9.15333 53.3798 9.5C53.2665 9.84 53.0998 10.13 52.8798 10.37C52.6665 10.61 52.4031 10.7933 52.0898 10.92C51.7831 11.04 51.4398 11.1 51.0598 11.1C50.7065 11.1 50.3798 11.04 50.0798 10.92C49.7798 10.7933 49.5198 10.61 49.2998 10.37C49.0798 10.13 48.9065 9.84 48.7798 9.5C48.6598 9.15333 48.5998 8.75667 48.5998 8.31C48.5998 7.71667 48.6998 7.21667 48.8998 6.81C49.0998 6.39667 49.3865 6.08333 49.7598 5.87C50.1331 5.65 50.5765 5.54 51.0898 5.54C51.5765 5.54 52.0031 5.65 52.3698 5.87C52.7431 6.08333 53.0331 6.39667 53.2398 6.81C53.4531 7.21667 53.5598 7.71667 53.5598 8.31ZM49.5098 8.31C49.5098 8.73 49.5631 9.09667 49.6698 9.41C49.7831 9.71667 49.9565 9.95333 50.1898 10.12C50.4231 10.2867 50.7198 10.37 51.0798 10.37C51.4398 10.37 51.7365 10.2867 51.9698 10.12C52.2031 9.95333 52.3731 9.71667 52.4798 9.41C52.5931 9.09667 52.6498 8.73 52.6498 8.31C52.6498 7.88333 52.5931 7.52 52.4798 7.22C52.3665 6.92 52.1931 6.69 51.9598 6.53C51.7331 6.36333 51.4365 6.28 51.0698 6.28C50.5231 6.28 50.1265 6.46 49.8798 6.82C49.6331 7.18 49.5098 7.67667 49.5098 8.31Z" fill="#589EF8"/>
<rect x="1" y="0.5" width="57" height="14" rx="3.5" stroke="#589EF8"/>
</svg>
