<svg width="12" height="12" viewBox="0 0 12 12" fill="none" xmlns="http://www.w3.org/2000/svg">
<path d="M8.33333 4.54167L11.25 7.45834M11.25 4.54167L8.33333 7.45834M1.68333 4.25H2.20903C2.53041 4.25 2.69109 4.25 2.84 4.20994C2.97193 4.17445 3.09661 4.11605 3.20834 4.03742C3.33444 3.94868 3.43731 3.82523 3.64305 3.57835L5.17483 1.74021C5.42898 1.43523 5.55605 1.28274 5.66705 1.26687C5.76318 1.25313 5.85984 1.28812 5.92489 1.36022C6 1.44347 6 1.64197 6 2.03896V9.96105C6 10.358 6 10.5565 5.92489 10.6398C5.85984 10.7119 5.76318 10.7469 5.66705 10.7331C5.55605 10.7173 5.42897 10.5648 5.17483 10.2598L3.64305 8.42166C3.43731 8.17477 3.33444 8.05133 3.20834 7.96259C3.09661 7.88395 2.97193 7.82556 2.84 7.79006C2.69109 7.75 2.53041 7.75 2.20903 7.75H1.68333C1.35664 7.75 1.19329 7.75 1.06851 7.68642C0.958744 7.6305 0.869506 7.54126 0.81358 7.4315C0.75 7.30672 0.75 7.14337 0.75 6.81667V5.18334C0.75 4.85664 0.75 4.69329 0.81358 4.56851C0.869506 4.45875 0.958744 4.36951 1.06851 4.31358C1.19329 4.25 1.35664 4.25 1.68333 4.25Z" stroke="#152432" stroke-linecap="round" stroke-linejoin="round"/>
</svg>
