<svg width="12" height="12" viewBox="0 0 12 12" fill="none" xmlns="http://www.w3.org/2000/svg">
<path d="M4.25 9.79167V1.91667L11.25 0.75V8.625M4.25 4.25L11.25 3.08333M4.25 10.0833C4.25 10.7277 3.4665 11.25 2.5 11.25C1.5335 11.25 0.75 10.7277 0.75 10.0833C0.75 9.439 1.5335 8.91667 2.5 8.91667C3.4665 8.91667 4.25 9.439 4.25 10.0833ZM11.25 8.91667C11.25 9.561 10.4665 10.0833 9.5 10.0833C8.5335 10.0833 7.75 9.561 7.75 8.91667C7.75 8.27233 8.5335 7.75 9.5 7.75C10.4665 7.75 11.25 8.27233 11.25 8.91667Z" stroke="white" stroke-linecap="round" stroke-linejoin="round"/>
</svg>
