<svg width="4" height="14" viewBox="0 0 4 14" fill="none" xmlns="http://www.w3.org/2000/svg">
<path d="M1.99999 7H2.00832M1.99999 2.00001H2.00832M1.99999 12H2.00832M2.83332 7C2.83332 7.46024 2.46023 7.83334 1.99999 7.83334C1.53975 7.83334 1.16666 7.46024 1.16666 7C1.16666 6.53977 1.53975 6.16667 1.99999 6.16667C2.46023 6.16667 2.83332 6.53977 2.83332 7ZM2.83332 12C2.83332 12.4602 2.46023 12.8333 1.99999 12.8333C1.53975 12.8333 1.16666 12.4602 1.16666 12C1.16666 11.5398 1.53975 11.1667 1.99999 11.1667C2.46023 11.1667 2.83332 11.5398 2.83332 12ZM2.83332 2.00001C2.83332 2.46024 2.46023 2.83334 1.99999 2.83334C1.53975 2.83334 1.16666 2.46024 1.16666 2.00001C1.16666 1.53977 1.53975 1.16667 1.99999 1.16667C2.46023 1.16667 2.83332 1.53977 2.83332 2.00001Z" stroke="#152432" stroke-width="2" stroke-linecap="round" stroke-linejoin="round"/>
</svg>
