<svg width="16" height="14" viewBox="0 0 16 14" fill="none" xmlns="http://www.w3.org/2000/svg">
<path d="M10.8285 2.83822C12.3906 4.40031 12.3906 6.93297 10.8285 8.49507M5.17158 8.49507C3.60948 6.93297 3.60948 4.40031 5.17158 2.83822M3.28581 10.3807C0.682317 7.77723 0.682317 3.55613 3.28581 0.952637M12.7142 0.952637C15.3177 3.55613 15.3177 7.77723 12.7142 10.3807M8.00001 7C8.73638 7 9.33334 6.40305 9.33334 5.66667C9.33334 4.93029 8.73638 4.33333 8.00001 4.33333C7.26363 4.33333 6.66667 4.93029 6.66667 5.66667C6.66667 6.40305 7.26363 7 8.00001 7ZM8.00001 7V13" stroke="#5D7891" stroke-width="1.33333" stroke-linecap="round" stroke-linejoin="round"/>
</svg>
