<svg width="12" height="12" viewBox="0 0 12 12" fill="none" xmlns="http://www.w3.org/2000/svg">
<path d="M6.94119 8.00001L5.02752 5.28897C4.72276 4.85723 4.57038 4.64136 4.38297 4.5686C4.21908 4.50497 4.03669 4.50865 3.8755 4.57884C3.69118 4.65911 3.54763 4.88095 3.26054 5.32464L0.837717 9.069C0.774115 9.1673 0.742314 9.21644 0.719794 9.2694C0.699804 9.31641 0.685282 9.36556 0.676515 9.41588C0.666639 9.47257 0.666623 9.53111 0.666591 9.64818L0.666138 11.3333H11.3333L11.3333 9.64027C11.3333 9.52609 11.3333 9.469 11.3239 9.41363C11.3156 9.36447 11.3018 9.3164 11.2827 9.27032C11.2612 9.21842 11.2309 9.17006 11.1702 9.07335L10.5261 8.04683C9.95693 7.13967 9.67233 6.6861 9.30248 6.52073C8.97914 6.37615 8.61157 6.36617 8.28086 6.49298C7.90258 6.63803 7.59378 7.0755 6.97619 7.95042L6.94119 8.00001ZM6.94119 8.00001L9.30248 11.3333M11.3333 2.00001C11.3333 2.73638 10.7364 3.33334 10 3.33334C9.26363 3.33334 8.66668 2.73638 8.66668 2.00001C8.66668 1.26363 9.26363 0.666672 10 0.666672C10.7364 0.666672 11.3333 1.26363 11.3333 2.00001Z" stroke="#5D7891" stroke-width="1.33333" stroke-linecap="round" stroke-linejoin="round"/>
</svg>
